# xmcd CD database file
#
# Track frame offsets:
#	150
#	19647
#	35238
#	47057
#	70544
#	83328
#	107742
#	121300
#	134042
#	158005
#	175220
#	188908
#
# Disc length: 2740 seconds
#
# Revision: 0
# Processed by: cddbd v1.5.2PL0 Copyright (c) Steve Scherf et al.
# Submitted via: CDex 1.70beta2
#
DISCID=990ab20c
DTITLE=Horace Silver - Opus De Funk
DYEAR=1900
DGENRE=Jazz
TTITLE0=the preacher
TTITLE1=opus de funk
TTITLE2=silverware
TTITLE3=to whom it may concern
TTITLE4=prelude to a kiss
TTITLE5=hippy
TTITLE6=day in day out
TTITLE7=safari
TTITLE8=hankerin´
TTITLE9=horoscope
TTITLE10=quicksilver
TTITLE11=how about you
EXTD=
EXTT0=
EXTT1=
EXTT2=
EXTT3=
EXTT4=
EXTT5=
EXTT6=
EXTT7=
EXTT8=
EXTT9=
EXTT10=
EXTT11=
PLAYORDER=
